<!DOCTYPE svg PUBLIC "-//W3C//DTD SVG 20010904//EN" "http://www.w3.org/TR/2001/REC-SVG-20010904/DTD/svg10.dtd">
<svg version="1.0" xmlns="http://www.w3.org/2000/svg" width="480px" height="360px" viewBox="0 0 4800 3600" preserveAspectRatio="xMidYMid meet">
<g id="layer1" fill="#020202" stroke="none">
 <path d="M2057 3134 c-13 -13 -7 -56 12 -98 34 -72 51 -114 51 -123 0 -4 9 -19 20 -33 11 -14 20 -32 20 -40 0 -8 14 -42 30 -74 17 -32 30 -64 30 -70 0 -6 9 -28 20 -49 11 -20 20 -44 20 -53 0 -9 8 -28 18 -42 52 -75 52 -72 52 -440 0 -274 -3 -342 -12 -334 -7 5 -33 13 -58 17 -24 4 -51 11 -60 15 -40 20 -69 29 -107 35 -24 4 -45 11 -49 16 -9 16 -84 11 -90 -6 -4 -8 -12 -15 -19 -15 -8 0 -22 -11 -33 -25 -11 -14 -27 -25 -35 -25 -9 0 -20 -6 -24 -12 -11 -17 -90 -78 -101 -78 -18 0 -44 -39 -40 -62 5 -34 42 -35 85 -1 59 47 113 83 123 83 5 0 13 6 17 13 4 7 22 23 38 34 27 19 37 20 80 12 28 -5 57 -14 66 -19 9 -4 37 -11 63 -15 42 -7 45 -9 29 -21 -10 -7 -25 -14 -33 -14 -20 0 -89 -37 -115 -61 -91 -83 -135 -133 -135 -151 0 -8 -7 -23 -15 -34 -8 -10 -17 -40 -21 -67 -4 -26 -11 -50 -15 -53 -12 -7 -12 -201 0 -208 4 -3 11 -25 15 -48 7 -45 43 -128 55 -128 4 0 15 -15 25 -32 21 -37 65 -77 84 -78 6 0 12 -4 12 -9 0 -13 67 -51 102 -58 16 -3 31 -10 34 -14 3 -5 16 -9 29 -9 13 0 27 -5 30 -10 8 -13 202 -13 210 0 3 6 17 10 30 10 13 0 26 4 29 9 3 4 18 11 34 14 35 7 102 45 102 58 0 5 6 9 13 9 18 1 62 41 83 78 10 17 21 32 25 32 12 0 48 83 55 128 4 23 11 45 15 48 12 7 12 201 0 208 -4 3 -11 27 -15 53 -4 27 -13 57 -21 67 -8 11 -15 26 -15 34 0 15 -24 44 -77 96 -77 75 -115 101 -163 113 -44 12 -38 27 17 38 26 6 54 14 61 18 25 16 70 10 103 -15 19 -14 41 -28 49 -32 8 -3 29 -15 45 -26 17 -11 45 -26 63 -34 17 -8 32 -20 32 -26 0 -6 10 -15 23 -20 12 -6 42 -22 67 -36 55 -31 84 -29 88 7 2 21 -6 31 -50 60 -29 18 -57 36 -63 38 -5 2 -23 14 -40 26 -16 12 -37 25 -45 29 -8 3 -28 15 -45 26 -16 11 -41 25 -55 30 -14 6 -33 21 -42 33 -15 19 -26 22 -88 21 -40 0 -76 -6 -82 -12 -7 -7 -22 -12 -34 -12 -13 0 -26 -4 -29 -10 -3 -5 -28 -12 -56 -16 -27 -4 -52 -11 -55 -15 -3 -5 -12 -9 -20 -9 -12 0 -14 48 -14 319 0 316 0 320 24 368 36 73 56 120 56 131 0 6 11 32 25 58 14 26 25 53 25 61 0 8 6 27 14 41 7 15 25 54 40 87 16 33 34 73 42 88 8 16 14 35 14 43 0 7 9 31 21 53 27 53 23 96 -10 96 -19 0 -30 -12 -54 -60 -16 -33 -33 -69 -38 -80 -4 -11 -17 -42 -29 -70 -12 -27 -26 -61 -31 -75 -6 -14 -17 -38 -25 -53 -8 -16 -14 -36 -14 -45 0 -10 -11 -34 -25 -54 -14 -20 -25 -45 -25 -55 0 -10 -8 -30 -18 -45 l-18 -28 -16 38 c-9 20 -19 48 -23 62 -4 14 -16 37 -26 52 -11 14 -19 32 -19 40 0 7 -14 40 -30 72 -17 32 -30 64 -30 70 0 6 -9 28 -20 49 -11 20 -20 45 -20 55 0 10 -4 22 -9 28 -6 5 -23 34 -39 64 -28 51 -56 72 -75 54z m398 -1464 c3 -5 17 -10 31 -10 24 0 126 -48 132 -63 2 -4 17 -14 33 -22 16 -9 29 -22 29 -30 0 -8 9 -19 19 -25 11 -5 35 -40 53 -77 32 -66 33 -71 33 -198 0 -127 -1 -132 -33 -198 -18 -37 -42 -72 -53 -77 -10 -6 -19 -16 -19 -23 0 -16 -88 -87 -109 -87 -9 0 -25 -7 -35 -15 -11 -8 -32 -15 -47 -15 -15 0 -31 -4 -34 -10 -3 -5 -46 -10 -95 -10 -49 0 -92 5 -95 10 -3 6 -19 10 -34 10 -15 0 -36 7 -47 15 -10 8 -26 15 -35 15 -21 0 -109 71 -109 87 0 7 -9 17 -19 23 -11 5 -35 40 -53 77 -32 66 -33 71 -33 198 0 127 1 132 33 198 18 37 42 72 53 77 10 6 19 17 19 25 0 8 13 21 29 30 16 8 31 18 33 22 6 15 108 63 132 63 14 0 28 5 31 10 3 6 46 10 95 10 49 0 92 -4 95 -10z"/>
 <path d="M2132 1435 c-18 -19 -23 -33 -20 -67 3 -40 5 -43 33 -43 27 0 30 3 33 38 l3 37 219 0 219 0 3 -47 c3 -46 4 -48 33 -48 l30 0 3 68 c3 64 2 68 -23 77 -15 6 -132 10 -268 10 l-242 0 -23 -25z"/>
 <path d="M2145 1138 c-3 -8 -4 -63 -3 -124 l3 -109 30 0 30 0 0 120 0 120 -28 3 c-16 2 -29 -2 -32 -10z"/>
 <path d="M2565 1138 c-3 -8 -4 -63 -3 -124 l3 -109 30 0 30 0 0 120 0 120 -28 3 c-16 2 -29 -2 -32 -10z"/>
 </g>
<g id="layer2" fill="#ffffff" stroke="none">
 <path d="M0 1800 l0 -1800 2400 0 2400 0 0 1800 0 1800 -2400 0 -2400 0 0 -1800z m2116 1264 c15 -30 32 -57 36 -60 4 -3 8 -13 8 -22 0 -10 9 -34 20 -55 11 -20 20 -43 20 -51 0 -7 14 -38 30 -69 17 -31 30 -64 30 -72 0 -9 11 -33 25 -53 14 -20 25 -44 25 -53 0 -9 10 -36 23 -60 26 -48 57 -64 57 -30 0 11 4 22 9 26 5 3 13 20 16 38 4 17 15 43 25 57 10 14 21 36 24 50 4 14 14 41 22 60 9 19 20 46 26 60 76 184 117 270 129 270 15 0 10 -39 -11 -77 -11 -21 -20 -43 -20 -50 0 -8 -4 -21 -9 -31 -6 -9 -23 -46 -39 -82 -16 -36 -36 -81 -45 -102 -10 -20 -17 -41 -17 -46 0 -6 -11 -32 -25 -58 -14 -26 -25 -53 -25 -61 0 -8 -6 -27 -14 -41 -7 -15 -25 -52 -40 -82 l-26 -56 2 -329 3 -330 23 -3 c13 -2 28 1 35 6 7 6 33 13 60 17 26 4 50 11 53 16 3 5 15 9 28 9 12 0 27 5 33 11 5 5 35 13 66 16 51 5 58 3 80 -21 13 -14 28 -26 32 -26 4 0 41 -20 82 -45 40 -25 78 -45 82 -45 5 0 11 -7 15 -15 3 -8 14 -15 25 -15 10 0 21 -6 24 -13 3 -8 21 -22 41 -31 33 -15 50 -46 26 -46 -19 0 -125 62 -139 81 -7 10 -18 19 -23 19 -6 0 -44 20 -85 45 -40 25 -78 45 -82 45 -5 0 -11 7 -15 15 -6 17 -101 22 -110 6 -4 -5 -29 -12 -56 -16 -27 -4 -52 -11 -56 -16 -3 -5 -16 -9 -30 -9 -15 0 -24 -6 -24 -15 0 -9 9 -15 24 -15 14 0 28 -4 31 -10 3 -5 15 -10 25 -10 28 0 99 -39 111 -61 5 -11 15 -19 22 -19 15 -1 57 -35 57 -47 0 -5 11 -20 25 -33 14 -13 25 -28 25 -34 1 -6 9 -29 20 -51 11 -22 19 -54 20 -72 0 -17 5 -35 10 -38 12 -8 13 -182 1 -189 -4 -3 -11 -25 -14 -48 -7 -52 -37 -116 -66 -142 -12 -11 -21 -25 -21 -32 0 -24 -153 -124 -189 -124 -11 0 -23 -4 -26 -10 -3 -5 -17 -10 -30 -10 -13 0 -27 -4 -30 -10 -8 -13 -182 -13 -190 0 -3 6 -17 10 -30 10 -13 0 -27 5 -30 10 -3 6 -15 10 -26 10 -36 0 -189 100 -189 124 0 7 -9 21 -21 32 -29 26 -59 90 -66 142 -3 23 -10 45 -14 48 -12 7 -11 181 1 189 6 3 10 21 10 38 1 18 9 50 20 72 11 22 19 45 20 51 0 6 11 21 25 34 14 13 25 28 25 33 0 12 42 46 57 47 7 0 17 8 22 19 12 22 83 61 111 61 10 0 22 5 25 10 3 5 17 10 31 10 13 0 24 6 24 13 0 17 -34 34 -85 42 -22 4 -44 10 -50 15 -5 4 -30 10 -55 14 -24 4 -50 12 -58 19 -11 9 -17 8 -27 -6 -7 -9 -17 -17 -22 -17 -6 0 -16 -7 -23 -15 -16 -19 -98 -75 -110 -75 -5 0 -13 -6 -17 -13 -10 -17 -68 -57 -82 -57 -24 0 -9 32 24 51 19 12 35 25 35 30 0 5 6 9 13 9 8 0 24 11 37 25 13 14 28 25 32 25 5 0 31 18 57 40 45 38 92 52 105 31 3 -5 27 -12 52 -16 26 -4 54 -10 63 -15 39 -19 69 -29 106 -35 22 -4 46 -11 52 -17 7 -6 20 -8 28 -4 13 5 15 53 15 359 l0 354 -26 49 c-14 27 -30 53 -35 58 -5 6 -9 17 -9 26 0 8 -9 32 -20 53 -11 20 -20 43 -20 51 0 7 -13 38 -30 69 -16 31 -30 64 -30 72 0 9 -11 33 -25 53 -14 20 -25 42 -25 49 0 8 -4 21 -9 31 -48 90 -63 142 -42 142 5 0 21 -25 37 -56z"/>
 <path d="M2255 1690 c-3 -5 -16 -10 -27 -10 -28 0 -122 -46 -144 -71 -9 -10 -23 -19 -30 -19 -8 0 -20 -13 -28 -29 -9 -16 -21 -31 -28 -34 -7 -2 -29 -35 -48 -73 l-35 -69 0 -145 1 -145 33 -60 c19 -33 43 -70 55 -82 11 -12 28 -30 37 -40 30 -32 67 -63 75 -63 5 -1 27 -9 49 -20 22 -11 50 -19 62 -20 12 0 25 -4 28 -10 8 -13 202 -13 210 0 3 6 16 10 28 10 12 1 40 9 62 20 22 11 44 19 49 20 8 0 45 31 75 63 9 10 26 28 37 40 12 12 36 49 55 82 l33 60 1 145 0 145 -35 69 c-19 38 -41 71 -48 73 -7 3 -19 18 -28 34 -8 16 -20 29 -28 29 -7 0 -21 9 -30 19 -22 25 -116 71 -144 71 -11 0 -24 5 -27 10 -3 6 -50 10 -105 10 -55 0 -102 -4 -105 -10z m399 -256 c22 -8 23 -114 2 -114 -11 0 -16 14 -18 48 l-3 47 -235 0 -235 0 -3 -37 c-2 -25 -8 -38 -18 -38 -20 0 -18 56 4 79 16 18 34 19 254 20 130 1 243 -2 252 -5z m-464 -409 c0 -87 -3 -105 -15 -105 -12 0 -15 18 -15 105 0 87 3 105 15 105 12 0 15 -18 15 -105z m420 0 c0 -87 -3 -105 -15 -105 -12 0 -15 18 -15 105 0 87 3 105 15 105 12 0 15 -18 15 -105z"/>
 </g>

</svg>